<svg width="60" height="60" version="1.1" viewBox="0 0 752 752" xmlns="http://www.w3.org/2000/svg">
  <path class="logo-top-curve" d="m376 226.82c36.465 0 69.145 12.785 95.191 34.098 10.418-3.3164 21.312-5.2109 32.676-5.2109-32.203-34.098-77.668-55.41-127.87-55.41s-95.664 21.312-127.87 55.41c11.367 0 22.258 1.8945 32.676 5.2109 26.051-21.312 59.199-34.098 95.191-34.098z" />
  <path class="logo-bottom-curve" d="m376 525.18c-35.992 0-69.145-12.785-95.191-34.098-10.418 3.3164-21.312 5.2109-32.676 5.2109 32.203 34.098 77.195 55.41 127.87 55.41 50.199 0 95.664-21.312 127.87-55.41-11.367 0-22.258-1.8945-32.203-5.2109-26.52 21.312-59.195 34.098-95.664 34.098z" />
  <path class="logo-tick" d="m339.06 376c0-52.094-42.148-93.77-93.77-93.77-51.621 0-94.242 41.676-94.242 93.77s42.148 93.77 93.77 93.77c51.621 0 94.242-41.676 94.242-93.77zm-50.672-11.363-47.359 47.359c-2.3672 2.3672-5.6836 3.7891-9.4727 3.7891-3.7891 0-6.6289-1.4219-9.4727-3.7891l-23.68-23.68c-5.2109-5.2109-5.2109-13.734 0-18.469 5.2109-5.2109 13.734-5.2109 18.469 0l14.207 14.207 38.359-38.359c5.2109-5.2109 13.734-5.2109 18.469 0 4.7422 5.207 5.6875 13.73 0.48047 18.941z" />
  <path class="logo-cross" d="m507.18 282.23c-52.094 0-93.77 42.148-93.77 93.77s42.148 93.77 93.77 93.77 93.77-41.676 93.77-93.77-42.148-93.77-93.77-93.77zm34.57 109.87c5.2109 5.2109 5.2109 13.734 0 18.469-2.3672 2.3672-6.1562 3.7891-9.4727 3.7891s-6.6289-1.4219-9.4727-3.7891l-16.102-16.102-16.102 16.102c-2.3672 2.3672-6.1562 3.7891-9.4727 3.7891-3.3164 0-6.6289-1.4219-9.4727-3.7891-5.2109-5.2109-5.2109-13.734 0-18.469l16.102-16.102-16.102-16.102c-5.2109-5.2109-5.2109-13.734 0-18.469 5.2109-5.2109 13.734-5.2109 18.469 0l16.102 16.102 16.102-16.102c5.2109-5.2109 13.734-5.2109 18.469 0 5.2109 5.2109 5.2109 13.734 0 18.469l-15.148 16.102z" />
</svg>